<?xml version="1.0" standalone="no"?>
<!DOCTYPE svg PUBLIC "-//W3C//DTD SVG 20010904//EN"
 "http://www.w3.org/TR/2001/REC-SVG-20010904/DTD/svg10.dtd">
<svg version="1.0" xmlns="http://www.w3.org/2000/svg"
 width="256.000000pt" height="256.000000pt" viewBox="0 0 256.000000 256.000000"
 preserveAspectRatio="xMidYMid meet">

<g transform="translate(0.000000,256.000000) scale(0.100000,-0.100000)"
fill="#000000" stroke="none">
<path d="M0 1280 l0 -1280 1280 0 1280 0 0 1280 0 1280 -1280 0 -1280 0 0
-1280z m740 840 c167 -48 304 -156 349 -274 84 -226 20 -443 -173 -580 -73
-52 -183 -106 -268 -131 l-58 -16 0 -390 0 -389 -85 0 -85 0 0 30 c0 30 1 30
55 30 l55 0 0 383 0 383 83 24 c196 57 356 171 415 296 24 54 27 69 27 174 0
107 -2 119 -29 174 -39 80 -102 140 -189 181 -101 48 -174 65 -309 72 l-118 6
0 30 0 30 128 -6 c84 -4 152 -13 202 -27z m1029 -355 l246 -380 3 383 2 382
30 0 30 0 0 -487 c0 -278 -4 -483 -9 -478 -12 14 -621 956 -621 961 0 3 16 4
36 2 36 -3 38 -7 283 -383z m-5 -942 c168 -260 306 -475 306 -478 0 -3 -15 -5
-34 -5 -33 0 -36 3 -271 368 -131 202 -244 374 -251 382 -12 12 -14 -44 -14
-368 l0 -382 -30 0 -30 0 0 487 c0 295 4 483 9 478 5 -6 147 -223 315 -482z"/>
</g>
</svg>
